<?xml version="1.0" encoding="utf-8"?>
<!-- Generator: Adobe Illustrator 25.4.1, SVG Export Plug-In . SVG Version: 6.00 Build 0)  -->
<svg version="1.1" id="Capa_1" xmlns="http://www.w3.org/2000/svg" xmlns:xlink="http://www.w3.org/1999/xlink" x="0px" y="0px"
	 viewBox="0 0 841.9 595.3" style="enable-background:new 0 0 841.9 595.3;" xml:space="preserve">
<style type="text/css">
	.st0{fill:#FFFFFF;}
</style>
<g>
	<g>
		<path class="st0" d="M343.9,79.4l127.8,224.5H217.7L343.9,79.4 M343.9,67.4L207.6,309.8h274.3L343.9,67.4L343.9,67.4z"/>
	</g>
	<g>
		<path class="st0" d="M492.1,79.4l127.8,224.5H365.8L492.1,79.4 M492.1,67.4L355.7,309.8H630L492.1,67.4L492.1,67.4z"/>
	</g>
	<g>
		<path class="st0" d="M476.9,312.7l-59.7,107.9l-198-107.9H476.9 M481.8,309.8H207.6l210.7,114.9L481.8,309.8L481.8,309.8z"/>
	</g>
	<g>
		<path class="st0" d="M618.4,312.7L419.5,420.7l-58.8-107.9H618.4 M630,309.8H355.7l62.6,114.9L630,309.8L630,309.8z"/>
	</g>
</g>
<g>
	<path class="st0" d="M283.6,487h1.5l8.3,18.9l8.4-18.9h1.4l-9.3,20.5h-1L283.6,487z"/>
	<path class="st0" d="M308.6,479h1.7v2.5h-1.7V479z M308.8,487h1.3v20.3h-1.3V487z"/>
	<path class="st0" d="M315.8,487h1.5l8.3,18.9L334,487h1.4l-9.3,20.5h-1L315.8,487z"/>
	<path class="st0" d="M338.2,497.2L338.2,497.2c0-6,4.1-10.6,9.7-10.6c6.1,0,9.3,5.2,9.3,10.7c0,0.2,0,0.3,0,0.4h-17.6
		c0.2,5.5,4.1,8.9,8.7,8.9c3.1,0,5.7-1.7,7.3-3.7l1,0.8c-1.9,2.4-4.6,4.2-8.3,4.2C342.8,507.8,338.2,503.7,338.2,497.2z
		 M355.8,496.5c-0.2-4.4-2.9-8.7-8-8.7c-4.6,0-8,3.7-8.2,8.7H355.8z"/>
	<path class="st0" d="M372.9,501.6L372.9,501.6c0-4.3,3.8-6.6,9-6.6c2.8,0,5.3,0.5,7.2,1.1v-1.4c0-4.6-2.7-6.8-7.2-6.8
		c-2.5,0-4.6,0.7-6.6,1.7l-0.5-1.1c2.3-1.1,4.5-1.8,7.2-1.8c2.8,0,5,0.7,6.4,2.2c1.3,1.3,2,3.3,2,5.8v12.6h-1.3v-4.2
		c-1,2.2-3.9,4.7-8.5,4.7C376.7,507.8,372.9,505.7,372.9,501.6z M389.2,499.8v-2.5c-2-0.6-4.3-1.1-7.3-1.1c-4.5,0-7.6,1.9-7.6,5.2
		v0.1c0,3.3,3,5.1,6.4,5.1C385.6,506.6,389.2,503.5,389.2,499.8z"/>
	<path class="st0" d="M397.5,487h1.3v6.2c1.2-3.5,4.3-6.7,8.6-6.6v1.3c0,0-0.2,0-0.2,0c-4.9,0-8.4,4.8-8.4,9.7v9.6h-1.3V487z"/>
	<path class="st0" d="M410.7,510.7l0.8-1c2.5,1.9,5.4,2.9,8.5,2.9c5.1,0,8.6-2.9,8.6-8.6v-3.7c-1.6,3.1-4.8,5.4-8.9,5.4
		c-5.3,0-9.9-4.1-9.9-9.6v-0.1c0-5.5,4.6-9.6,9.9-9.6c4.1,0,7.3,2.3,8.9,5.4V487h1.3v17.2c0,3-1,5.4-2.6,7c-1.7,1.7-4.3,2.7-7.3,2.7
		C416.5,513.9,413.4,512.8,410.7,510.7z M428.6,496.3L428.6,496.3c0-4.8-4.1-8.5-8.9-8.5c-4.8,0-8.6,3.5-8.6,8.3v0.1
		c0,4.7,3.9,8.4,8.6,8.4C424.5,504.6,428.6,501,428.6,496.3z"/>
	<path class="st0" d="M435.9,497.2L435.9,497.2c0-6,4.1-10.6,9.7-10.6c6.1,0,9.3,5.2,9.3,10.7c0,0.2,0,0.3,0,0.4h-17.6
		c0.2,5.5,4.1,8.9,8.7,8.9c3.1,0,5.7-1.7,7.3-3.7l1,0.8c-1.9,2.4-4.6,4.2-8.3,4.2C440.5,507.8,435.9,503.7,435.9,497.2z
		 M453.5,496.5c-0.2-4.4-2.9-8.7-8-8.7c-4.6,0-8,3.7-8.2,8.7H453.5z"/>
	<path class="st0" d="M460.8,487h1.3v4.8c0.9-2.4,3.5-5.3,7.8-5.3c5.4,0,8.4,3.6,8.4,8.9v11.9H477v-11.7c0-4.7-2.5-7.9-7.2-7.9
		c-4.3,0-7.6,3.5-7.6,8.1v11.4h-1.3V487z"/>
	<path class="st0" d="M486.4,502.1v-13.9h-3.1V487h3.1v-6.8h1.3v6.8h7.4v1.2h-7.4V502c0,3,1.6,4.5,4.2,4.5c1,0,2-0.2,3.1-0.7v1.2
		c-1,0.5-2.1,0.7-3.2,0.7C488.6,507.7,486.4,505.8,486.4,502.1z"/>
	<path class="st0" d="M500.9,479h1.7v2.5h-1.7V479z M501.1,487h1.3v20.3h-1.3V487z"/>
	<path class="st0" d="M510.1,487h1.3v4.8c0.9-2.4,3.5-5.3,7.8-5.3c5.4,0,8.4,3.6,8.4,8.9v11.9h-1.3v-11.7c0-4.7-2.5-7.9-7.2-7.9
		c-4.3,0-7.6,3.5-7.6,8.1v11.4h-1.3V487z"/>
	<path class="st0" d="M533,501.6L533,501.6c0-4.3,3.8-6.6,9-6.6c2.8,0,5.3,0.5,7.2,1.1v-1.4c0-4.6-2.7-6.8-7.2-6.8
		c-2.5,0-4.6,0.7-6.6,1.7l-0.5-1.1c2.3-1.1,4.5-1.8,7.2-1.8c2.8,0,5,0.7,6.4,2.2c1.3,1.3,2,3.3,2,5.8v12.6h-1.3v-4.2
		c-1,2.2-3.9,4.7-8.5,4.7C536.8,507.8,533,505.7,533,501.6z M549.2,499.8v-2.5c-2-0.6-4.3-1.1-7.3-1.1c-4.5,0-7.6,1.9-7.6,5.2v0.1
		c0,3.3,3,5.1,6.4,5.1C545.7,506.6,549.2,503.5,549.2,499.8z"/>
</g>
</svg>
